HIERARCHY
ROOT Hips
{
  OFFSET -32.5998 29.0326 120.673
  CHANNELS 6 Xposition Yposition Zposition Zrotation Xrotation Yrotation
  JOINT LeftUpLeg
  {
    OFFSET 8.64259 1.95398 -2.38835
    CHANNELS 3 Zrotation Xrotation Yrotation
    JOINT LeftLeg
    {
      OFFSET 43.7702 0 0
      CHANNELS 3 Zrotation Xrotation Yrotation
      JOINT LeftFoot
      {
        OFFSET 40.6238 0 0
        CHANNELS 3 Zrotation Xrotation Yrotation
        JOINT LeftToeBase
        {
          OFFSET 12.7242 0 0
          CHANNELS 3 Zrotation Xrotation Yrotation
          End Site
          {
            OFFSET 0 0 0
          }
        }
      }
    }
  }
  JOINT RightUpLeg
  {
    OFFSET -8.2249 1.95398 -2.59336
    CHANNELS 3 Zrotation Xrotation Yrotation
    JOINT RightLeg
    {
      OFFSET 43.5653 0 0
      CHANNELS 3 Zrotation Xrotation Yrotation
      JOINT RightFoot
      {
        OFFSET 40.6238 0 0
        CHANNELS 3 Zrotation Xrotation Yrotation
        JOINT RightToeBase
        {
          OFFSET 12.7242 0 0
          CHANNELS 3 Zrotation Xrotation Yrotation
          End Site
          {
            OFFSET 0 0 0
          }
        }
      }
    }
  }
  JOINT Spine
  {
    OFFSET 0.165834 0.87714 6.61349
    CHANNELS 3 Zrotation Xrotation Yrotation
    JOINT Spine1
    {
      OFFSET 7.38963 1.71661e-005 0
      CHANNELS 3 Zrotation Xrotation Yrotation
      JOINT Spine2
      {
        OFFSET 11.9445 1.14441e-005 0
        CHANNELS 3 Zrotation Xrotation Yrotation
        JOINT Spine3
        {
          OFFSET 14.7254 4.19617e-005 0
          CHANNELS 3 Zrotation Xrotation Yrotation
          JOINT Spine4
          {
            OFFSET 10.9679 0 0
            CHANNELS 3 Zrotation Xrotation Yrotation
            JOINT RightShoulder
            {
              OFFSET 2.46616 -1.6653 3.69651
              CHANNELS 3 Zrotation Xrotation Yrotation
              JOINT RightArm
              {
                OFFSET 13.0012 0 0
                CHANNELS 3 Zrotation Xrotation Yrotation
                JOINT RightForeArm
                {
                  OFFSET 28.7848 1.62311e-005 0
                  CHANNELS 3 Zrotation Xrotation Yrotation
                  JOINT RightHand
                  {
                    OFFSET 26.5688 1.62095e-005 0
                    CHANNELS 3 Zrotation Xrotation Yrotation
                    End Site
                    {
                      OFFSET 0 0 0
                    }
                  }
                }
              }
            }
            JOINT LeftShoulder
            {
              OFFSET 2.38034 -1.29275 -3.7523
              CHANNELS 3 Zrotation Xrotation Yrotation
              JOINT LeftArm
              {
                OFFSET 16.3182 6.07031e-005 0
                CHANNELS 3 Zrotation Xrotation Yrotation
                JOINT LeftForeArm
                {
                  OFFSET 27.0901 0 0
                  CHANNELS 3 Zrotation Xrotation Yrotation
                  JOINT LeftHand
                  {
                    OFFSET 24.5451 1.51738e-005 0
                    CHANNELS 3 Zrotation Xrotation Yrotation
                    End Site
                    {
                      OFFSET 0 0 0
                    }
                  }
                }
              }
            }
            JOINT Neck
            {
              OFFSET 5.0226 -0.0266342 0
              CHANNELS 3 Zrotation Xrotation Yrotation
              JOINT Head
              {
                OFFSET 6.69364 2.86102e-005 0
                CHANNELS 3 Zrotation Xrotation Yrotation
                End Site
                {
                  OFFSET 0 0 0
                }
              }
            }
          }
        }
      }
    }
  }
}
MOTION
Frames:	12
Frame Time:	0.0416667
-52.5733 82.8634 14.9739 -81.7398 7.42829 -105.795 -175.833 7.86505 97.2421 -74.2842 26.3343 5.43062 59.5132 -1.59476 2.71058 32.8975 3.81577 -6.19136 168.139 22.7112 105.036 -47.3378 -0.102399 10.1288 97.038 -24.7444 -2.27326 10.3163 3.70766 11.4313 0.487411 7.9646 -88.8523 10.9255 1.50143 2.1415 -0.746224 1.59419 2.07337 -23.2697 0.788641 2.49353 -3.25705 0.78865 2.49353 90.9691 -20.5383 -108.757 41.698 -24.8052 17.6364 -36.5224 16.347 -92.452 -8.87759 -0.0825073 -4.45594 -87.4082 -48.3836 82.3308 8.73049 -7.91714 -17.6579 33.4723 -22.8529 -116.902 1.04264 -0.0678373 -3.59984 20.9658 -3.57873 9.6806 -7.13134 -6.1068 -13.7834 
-56.8713 82.1098 15.2021 -81.7576 12.6286 -105.238 -175.03 16.1729 97.9364 -87.478 14.2016 4.64959 63.4348 -0.187817 4.56762 29.7292 2.41468 -5.25789 169.835 18.293 105.867 -48.506 -1.83554 7.93315 98.8931 -27.4562 -3.2019 9.26952 4.20553 11.1557 0.942446 8.17415 -89.2049 10.5116 2.2424 1.37964 -1.1581 2.30093 1.27958 -23.6975 1.72417 1.98978 -3.68482 1.72414 1.98977 91.8775 -20.7875 -106.541 35.2873 -19.9235 8.141 -35.6002 15.9959 -95.9994 -9.63593 -0.179749 -3.15425 -87.9463 -52.1169 82.1781 8.7142 0.973041 -8.9655 35.4232 -23.4229 -113.153 0.149113 -0.0793193 -3.85802 21.2454 -4.96367 12.3195 -6.25207 -8.42507 -13.5607 
-61.2194 81.5336 15.3765 -79.8698 19.0052 -104.661 -173.692 26.6431 98.5994 -98.4767 6.75963 4.32193 68.1925 2.43693 7.5828 23.8945 0.80765 -6.25052 172.328 14.847 106.39 -49.04 -2.50132 5.89461 100.59 -28.0892 -1.02934 14.4359 2.64768 10.2804 1.38912 8.32404 -89.5489 10.2192 2.97384 0.642336 -1.44843 2.99922 0.510715 -24.005 2.6432 1.50694 -3.99233 2.64324 1.50694 92.3114 -20.26 -105.765 28.8201 -11.9499 -2.55053 -37.1441 15.7446 -100.254 -8.85195 -0.232527 -2.24182 -88.5129 -54.6794 81.804 4.89514 6.13033 2.9574 37.1881 -23.933 -110.892 -2.00239 -0.0899504 -4.19375 24.5038 -4.65618 13.9434 -6.2514 -9.06159 -12.2115 
-65.9456 81.2072 15.2228 -77.7618 24.5519 -106.419 -172.679 36.6648 96.827 -105.564 7.23782 4.07793 73.1911 6.82894 11.2082 19.4258 -0.911929 -5.97072 173.853 10.9032 104.158 -48.247 -3.09658 3.90654 103.481 -29.4126 1.13435 18.8129 0.941454 10.612 1.69776 8.45274 -89.4961 9.95992 3.61271 0.70431 -1.70611 3.6402 0.54442 -24.2737 3.23389 1.75853 -4.261 3.23389 1.75853 92.4465 -19.2326 -105.902 25.8189 -2.23873 -11.81 -34.7009 14.2408 -104.624 -8.34139 -0.226264 -2.13074 -88.0194 -54.9437 82.5515 -1.84236 6.92272 16.6067 39.0771 -25.6142 -111.921 -1.32812 -0.0884865 -4.09973 27.0256 -4.34775 14.213 -6.20632 -9.15698 -12.4166 
-71.1138 81.5334 14.63 -75.5257 28.2045 -108.817 -172.453 46.0025 94.4405 -107.307 8.61981 3.86479 77.1541 10.0956 11.5356 22.7223 0.243688 -5.93242 173.756 6.57212 100.522 -45.3565 -7.19582 2.66752 102.591 -29.7065 0.213678 21.114 0.470895 9.46238 1.96445 8.46859 -89.2811 9.91997 4.24163 1.08186 -1.74434 4.28512 0.893806 -24.3211 3.72021 2.30807 -4.30842 3.72023 2.30808 91.9363 -17.9453 -107.737 24.8786 8.79804 -18.1337 -30.8444 12.0478 -109.471 -9.04663 -0.22166 -2.45966 -86.4246 -54.3311 84.7343 -8.50497 6.98553 28.4544 39.2761 -27.9187 -114.289 -0.761285 -0.0927745 -4.70096 28.8503 -5.21034 13.1707 -7.11468 -9.70355 -12.0232 
-77.0521 82.4549 13.1831 -73.6519 30.7772 -111.599 -171.461 53.0495 90.9499 -103.849 8.3453 3.36228 80.0451 11.8819 9.81461 25.1318 0.669641 -4.93361 173.037 1.58012 95.9152 -40.8074 -11.3424 1.40815 98.4137 -27.1968 -0.794994 25.3526 -0.8611 8.77489 2.2935 8.44692 -88.9954 9.94824 5.02733 1.58306 -1.71366 5.09209 1.35975 -24.3024 4.31895 3.02285 -4.28978 4.31895 3.02284 91.8068 -16.5882 -108.748 24.3496 16.6625 -22.9025 -29.5846 10.8594 -112.896 -9.66195 -0.299843 -1.643 -84.7976 -53.4077 86.9634 -13.6063 8.62044 37.0095 37.2713 -29.4416 -116.677 0.433653 -0.11478 -5.33297 29.301 -6.58475 12.4787 -7.25573 -10.7593 -12.2324 
-83.5574 84.1114 10.5834 -72.7086 32.8261 -113.916 -170.29 56.5183 87.9034 -95.9117 7.30055 2.41153 82.9382 12.8695 6.08485 26.0665 0.68577 -4.18306 172.703 -3.87599 91.9927 -34.84 -12.507 -0.642451 90.7979 -21.3972 -0.823489 30.4243 -3.64621 13.3271 2.7511 8.43675 -88.7531 9.95174 6.04933 1.98044 -1.70622 6.13058 1.7114 -24.3174 5.17422 3.7104 -4.30477 5.17419 3.71038 92.429 -14.8521 -108.094 25.8757 23.0123 -25.1969 -27.785 9.98741 -117.449 -10.8106 -0.403544 -0.874706 -84.3046 -51.8782 87.5075 -18.9205 10.715 42.8461 37.7883 -31.0412 -116.235 0.719996 -0.133437 -5.96045 28.1434 -9.31554 11.7732 -5.715 -13.1308 -11.2763 
-90.4459 85.6244 7.31294 -72.1891 33.883 -115.765 -169.1 57.4131 84.9998 -85.2592 6.54918 0.849826 86.846 15.1679 4.30824 26.4248 0.1997 -2.72232 171.527 -9.85449 88.0884 -26.5762 -17.6885 -2.04977 78.2062 -14.0008 -4.52463 34.1259 -5.02787 14.7195 3.14988 8.434 -88.4432 9.93218 6.9846 2.5213 -1.72178 7.08876 2.21014 -24.3526 5.90377 4.50863 -4.33997 5.90376 4.50863 93.1869 -13.5604 -106.791 27.2327 26.0972 -24.6222 -26.6132 10.1682 -121.494 -11.9685 -0.52277 -0.0952275 -84.7263 -49.0969 86.5384 -22.0567 10.0628 46.4227 39.7712 -32.6258 -115.834 1.70105 -0.136034 -5.65956 30.2678 -11.5615 10.5366 -8.89731 -14.6442 -11.621 
-97.254 87.1443 3.68385 -71.3887 34.5729 -117.417 -169.161 56.851 83.7352 -73.3008 7.49379 -1.03459 87.0683 15.1119 1.76458 27.146 -0.863234 0.451403 171.035 -12.9268 85.5718 -23.0202 -21.1519 -3.79069 66.5479 -5.07021 -4.15264 30.1331 -3.74172 13.9857 3.47096 8.41196 -88.1176 9.94741 7.77246 3.10123 -1.70307 7.90134 2.75443 -24.3483 6.48118 5.29941 -4.33563 6.48118 5.29941 94.0979 -12.0817 -105.082 29.4181 27.5438 -23.6294 -26.3173 10.9608 -124.72 -12.0336 -0.647328 1.0965 -85.5554 -46.4906 84.8899 -23.4485 8.82144 47.7545 40.0759 -33.1051 -116.397 1.56328 -0.150623 -6.11004 32.6048 -13.7007 9.26642 -11.75 -16.0298 -11.8472 
-104.033 88.0851 -0.0559236 -70.122 34.2058 -119.497 -169.224 55.704 82.0546 -61.5983 8.91549 -3.09678 83.4635 13.0084 0.415458 29.267 -0.789003 2.4423 171.835 -13.1962 84.4985 -25.4991 -19.3592 -5.55619 62.9763 -1.88075 -1.61561 13.9879 3.71367 8.22571 3.54217 8.30822 -87.7613 10.1233 8.07811 3.76756 -1.52687 8.23598 3.40664 -24.1631 6.57328 6.02557 -4.15045 6.57329 6.02559 94.4373 -11.3607 -104.498 30.5212 27.668 -22.1016 -25.3374 11.1205 -126.698 -12.6485 -0.782408 2.06475 -86.4185 -45.1078 83.3065 -22.3296 7.70018 46.6403 38.8536 -32.8312 -118.108 3.20978 -0.167899 -5.95888 33.4893 -15.5263 6.86986 -12.243 -16.8313 -10.7916 
-110.322 88.2724 -3.91592 -69.7087 33.9681 -119.032 -169.704 53.0446 82.5149 -51.7634 8.12441 -4.58376 80.7614 10.9549 -2.15229 32.3106 -0.902015 6.22132 174.435 -12.3367 87.3419 -33.7443 -16.0777 -6.27362 65.2796 -3.33434 -3.6052 16.3582 2.78041 7.97388 3.44449 8.22774 -87.6902 10.28 7.91768 3.90779 -1.3716 8.08185 3.55396 -23.9964 6.37843 6.11008 -3.98374 6.37845 6.11008 94.0988 -13.117 -104.563 29.893 24.9924 -20.2627 -23.3565 10.7744 -127.357 -15.388 -0.95207 2.03532 -87.0719 -46.834 82.5766 -18.3095 7.63626 42.3455 37.6007 -32.5446 -119.787 4.42099 -0.165359 -5.63064 35.784 -16.6638 4.1173 -12.3012 -16.9073 -9.05395 
-116.619 88.0801 -7.82729 -71.7067 34.1518 -117.471 -170.847 47.7391 83.2454 -44.6041 9.60117 -5.18521 77.326 8.85251 -3.1604 32.0729 -1.00455 6.22913 175.47 -10.5603 89.4045 -46.5946 -13.6224 -5.8114 67.3003 -4.33489 -4.11531 16.8594 2.60062 7.9188 3.18646 8.3959 -87.7597 9.95269 7.36785 3.84383 -1.70201 7.52974 3.51464 -24.3079 5.87331 5.88252 -4.29521 5.87331 5.88252 93.2624 -15.3889 -105.67 30.0302 20.9271 -16.7123 -25.8698 12.5012 -124.687 -15.7254 -1.07526 2.79237 -88.1578 -49.5443 81.402 -14.5554 9.12188 33.3616 36.6951 -31.0175 -118.915 4.04208 -0.052909 -3.77137 36.4994 -16.8657 2.35561 -11.0057 -16.4364 -8.70762 
